HIERARCHY
ROOT Hips
{
	OFFSET 0.00 0.00 0.00
	CHANNELS 6 Xposition Yposition Zposition Zrotation Xrotation Yrotation
	JOINT Spine
	{
		OFFSET 0.00 20.00 0.00
		CHANNELS 3 Zrotation Xrotation Yrotation
		JOINT Neck
		{
			OFFSET 0.00 20.00 0.00
			CHANNELS 3 Zrotation Xrotation Yrotation
			JOINT Head
			{
				OFFSET 0.00 12.00 0.00
				CHANNELS 3 Zrotation Xrotation Yrotation
				End Site
				{
					OFFSET 0.00 10.00 0.00
				}
			}
		}
		JOINT LeftArm
		{
			OFFSET 12.00 0.00 0.00
			CHANNELS 3 Zrotation Xrotation Yrotation
			JOINT LeftForeArm
			{
				OFFSET 25.00 0.00 0.00
				CHANNELS 3 Zrotation Xrotation Yrotation
				JOINT LeftHand
				{
					OFFSET 22.00 0.00 0.00
					CHANNELS 3 Zrotation Xrotation Yrotation
					End Site
					{
						OFFSET 10.00 0.00 0.00
					}
				}
			}
		}
		JOINT RightArm
		{
			OFFSET -12.00 0.00 0.00
			CHANNELS 3 Zrotation Xrotation Yrotation
			JOINT RightForeArm
			{
				OFFSET -25.00 0.00 0.00
				CHANNELS 3 Zrotation Xrotation Yrotation
				JOINT RightHand
				{
					OFFSET -22.00 0.00 0.00
					CHANNELS 3 Zrotation Xrotation Yrotation
					End Site
					{
						OFFSET -10.00 0.00 0.00
					}
				}
			}
		}
	}
	JOINT LeftUpLeg
	{
		OFFSET 9.00 -8.00 0.00
		CHANNELS 3 Zrotation Xrotation Yrotation
		JOINT LeftLeg
		{
			OFFSET 0.00 -42.00 0.00
			CHANNELS 3 Zrotation Xrotation Yrotation
			JOINT LeftFoot
			{
				OFFSET 0.00 -40.00 0.00
				CHANNELS 3 Zrotation Xrotation Yrotation
				End Site
				{
					OFFSET 0.00 0.00 15.00
				}
			}
		}
	}
	JOINT RightUpLeg
	{
		OFFSET -9.00 -8.00 0.00
		CHANNELS 3 Zrotation Xrotation Yrotation
		JOINT RightLeg
		{
			OFFSET 0.00 -42.00 0.00
			CHANNELS 3 Zrotation Xrotation Yrotation
			JOINT RightFoot
			{
				OFFSET 0.00 -40.00 0.00
				CHANNELS 3 Zrotation Xrotation Yrotation
				End Site
				{
					OFFSET 0.00 0.00 15.00
				}
			}
		}
	}
}
MOTION
Frames: 24
Frame Time: 0.093535
-6.7341 -54.3089 -0.1059 -4.0706 51.1400 -4.5447 0.0000 0.0000 0.0000 0.0000 0.0000 0.0000 0.9859 22.5875 0.1969 70.2083 -0.4539 0.6457 -33.1341 -40.3031 -101.9393 35.9184 -4.1209 12.6672 -68.0281 0.4815 0.7135 50.9313 -47.5699 85.5657 -18.5159 -1.9959 -12.1994 41.1730 0.0000 0.0000 130.4679 -47.8631 -87.7787 -138.9846 -0.9826 2.6266 -42.0941 0.0000 -0.0000 -74.5733 -72.3457 58.2117 104.9710 18.2634 23.6508
-6.5463 -54.1015 -0.1034 -3.8215 51.3243 -4.3376 0.0000 0.0000 0.0000 0.0000 0.0000 0.0000 0.9704 22.3614 0.1918 70.0783 -0.5632 0.8032 -32.4899 -39.8804 -102.4599 32.8965 -3.6884 12.4484 -68.2381 0.5921 0.8739 43.7896 -43.3341 89.3390 -20.5127 -2.7026 -14.8552 41.1498 0.0000 0.0000 128.9439 -41.8376 -77.3457 -150.9373 -5.5185 21.0661 -42.1173 0.0000 -0.0000 -111.4395 -61.2409 81.9360 137.8131 3.8722 10.0168
-6.6770 -53.4793 -0.1025 -4.1732 52.4279 -4.7384 0.0000 0.0000 0.0000 0.0000 0.0000 0.0000 0.6023 22.4881 0.1197 70.1637 -0.8781 1.2502 -35.3297 -44.0909 -103.6347 36.4890 -4.0651 12.2897 -68.7310 0.9139 1.3364 45.2332 -44.6548 89.1813 -22.1510 -3.0360 -15.4198 41.0356 0.0000 0.0000 130.2153 -42.7555 -80.3017 -144.0541 -4.8262 14.8034 -42.2314 0.0000 -0.0000 -107.6390 -64.4350 81.4977 122.7133 8.3338 15.1951
-6.9407 -53.8387 -0.1129 -2.0879 48.3423 -2.0522 0.0000 0.0000 0.0000 0.0000 0.0000 0.0000 1.4996 25.8361 0.3440 68.5086 -0.6237 0.9159 -56.0246 -58.2196 -92.6130 39.4414 1.0408 -2.9031 -67.1570 0.6443 0.9705 48.5235 -44.9269 85.0641 -21.7417 -2.5926 -13.4402 39.9144 0.0000 0.0000 132.0500 -49.9259 -92.6199 -140.2703 1.9350 -5.3521 -43.3527 0.0000 -0.0000 -103.3762 -67.1529 80.0715 118.0691 8.2135 13.6468
-7.0487 -53.0057 -0.1082 -3.8311 51.8931 -4.1888 0.0000 0.0000 0.0000 0.0000 0.0000 0.0000 0.9707 22.8643 0.1963 69.6454 -0.8880 1.2765 -47.1939 -55.4468 -100.5330 38.4864 -0.7821 2.2402 -68.6399 0.9125 1.3367 45.2147 -44.6577 89.2113 -21.3643 -2.9059 -15.3167 39.1739 0.0000 -0.0000 132.4988 -43.0813 -83.7886 -146.9032 -3.0403 10.2076 -44.0932 0.0000 0.0000 -109.8068 -61.8489 80.8948 129.3983 3.6675 7.7492
-7.5155 -53.0770 -0.1045 -3.9467 51.1720 -4.3499 0.0000 0.0000 0.0000 0.0000 0.0000 0.0000 0.6319 23.8137 0.1332 69.8541 -0.5027 0.7199 -55.3001 -57.7631 -92.9516 43.9875 -4.1207 10.1798 -68.3681 0.5234 0.7705 46.6300 -45.9036 88.9948 -21.5278 -3.1204 -16.3072 40.0622 0.0000 0.0000 133.7309 -44.5358 -87.5663 -143.7559 -2.5273 7.7118 -43.2049 0.0000 -0.0000 -92.4006 -69.5690 71.8353 121.7636 18.7293 32.9852
-7.8954 -53.8600 -0.1095 -1.0082 44.3970 -0.9264 0.0000 0.0000 0.0000 0.0000 0.0000 0.0000 0.5322 29.6283 0.1407 66.3149 -2.2539 3.4492 -43.9718 -53.0000 -102.0004 42.9015 -4.6642 11.8351 -67.1537 2.2136 3.3341 53.6466 -45.9317 79.9313 -21.0603 -2.6240 -14.0479 38.6117 0.0000 0.0000 135.6052 -54.1051 -102.7496 -141.0492 6.2751 -17.6220 -44.6554 0.0000 -0.0000 -99.6627 -68.8562 78.1535 121.4518 13.7094 24.2066
-8.5513 -54.0329 -0.1157 3.8033 43.1900 5.8941 0.0000 0.0000 0.0000 0.0000 0.0000 0.0000 2.5452 31.2082 0.7109 65.1733 -3.0541 4.7764 -88.0608 -61.0786 -62.7900 52.1662 3.4992 -7.1410 -67.3862 2.9188 4.3765 53.3742 -42.5279 75.4935 -7.5030 -0.6475 -9.8505 35.0586 0.0000 0.0000 146.0713 -49.7935 -113.3684 -143.3675 7.1555 -21.3917 -48.2085 0.0000 -0.0000 -87.9056 -65.8789 63.9815 123.2648 9.1313 16.8248
-8.9815 -54.5259 -0.1186 4.0743 43.7631 5.9913 0.0000 0.0000 0.0000 0.0000 0.0000 0.0000 1.6825 30.1702 0.4535 66.3686 -2.8581 4.3690 -68.9695 -63.5482 -84.0850 58.3331 -0.8483 1.5199 -67.9468 2.7592 4.0938 60.7548 -46.3285 72.2539 -13.9999 -1.0484 -8.5229 34.8333 0.0000 -0.0000 147.7777 -58.6649 -125.5906 -137.4125 16.9093 -41.7508 -48.4337 0.0000 -0.0000 -46.8133 -69.6602 33.5240 105.0511 19.5923 25.3851
-8.0623 -52.3525 -0.0708 1.6950 41.5235 2.6819 0.0000 0.0000 0.0000 0.0000 0.0000 0.0000 0.7773 27.9567 0.1935 68.1611 -2.0521 3.0328 -151.9820 -8.7672 -2.1914 8.9452 4.7149 -55.5172 -68.0166 2.0594 3.0518 121.3754 -53.3970 31.5356 -39.6748 6.3056 17.3623 38.0221 0.0000 0.0000 -37.3984 -41.6584 14.6750 -18.8520 46.4465 -8.1491 -45.2450 0.0000 -0.0000 41.8729 -27.6679 -10.7643 10.5437 24.4089 2.2866
-6.9186 -51.7495 -0.0508 0.8793 38.0223 1.8127 0.0000 0.0000 0.0000 0.0000 0.0000 0.0000 0.5677 24.2140 0.1218 67.0648 -1.8092 2.7298 -150.7174 -19.6632 -5.1845 15.2056 5.8955 -42.1917 -66.5797 1.8284 2.7842 116.6878 -57.1854 37.1504 -34.3251 3.6321 11.7234 40.9906 0.0000 0.0000 -39.8410 -35.6694 13.3009 -12.0052 43.6753 -4.8257 -42.2765 0.0000 0.0000 43.9566 -23.4119 -9.5602 3.8632 22.8204 0.7800
-3.0534 -51.7157 -0.0475 -5.5417 32.7676 -7.4965 0.0000 0.0000 0.0000 0.0000 0.0000 0.0000 -3.4227 31.2038 -0.9560 66.7978 -2.7554 4.1779 -152.1507 6.5641 1.6291 -1.1373 -0.5808 -54.1046 -65.9636 2.8033 4.3186 138.3420 -43.3963 17.2165 -32.2519 9.8913 33.3241 47.0354 0.0000 -0.0000 -38.0612 -42.8148 15.4023 -34.4363 51.6233 -17.0491 -36.2317 0.0000 0.0000 42.4057 -40.2617 -16.1864 11.0506 43.1560 4.3818
0.4620 -51.6493 -0.0553 -6.3529 26.9479 -7.9796 0.0000 0.0000 0.0000 0.0000 0.0000 0.0000 -1.7356 23.7768 -0.3654 67.0425 -3.9575 5.9712 -149.7112 -5.6936 -1.5422 5.8487 2.4221 -44.9625 -66.8375 3.9751 6.0211 135.3119 -47.0459 20.2876 -27.6874 5.8200 23.3103 46.9559 0.0000 0.0000 -40.1641 -27.8432 10.3561 -15.3110 39.5692 -5.5363 -36.3112 0.0000 -0.0000 41.7136 -33.8204 -13.2143 6.5475 38.5816 2.2939
5.5614 -50.6692 -0.0817 -0.9736 18.1506 3.1094 0.0000 0.0000 0.0000 0.0000 0.0000 0.0000 1.6371 21.0804 0.3046 66.4563 -2.1175 3.2320 -147.7377 -3.4675 -1.0032 -3.8294 -1.2685 -36.6451 -67.2128 2.0831 3.1341 143.2342 -29.9584 10.1624 -15.5831 2.7190 19.6789 41.7319 0.0000 -0.0000 -41.2831 -15.9433 6.0394 -0.6796 38.3084 -0.2360 -41.5351 0.0000 0.0000 39.0950 -21.0968 -7.5652 9.9487 31.5874 2.8205
8.7083 -50.0903 -0.0791 2.6666 16.9226 16.9012 0.0000 0.0000 0.0000 0.0000 0.0000 0.0000 4.6677 14.8724 0.6096 68.0409 3.5356 -5.2357 -137.6562 -39.8746 -15.9942 16.4957 4.5999 -30.9734 -68.0716 -3.5329 -5.2288 144.9417 -19.9983 6.3750 -15.7116 3.5369 25.2268 38.3548 0.0000 0.0000 -39.9903 -12.0028 4.3814 7.8597 30.8197 2.1695 -44.9122 0.0000 0.0000 37.4979 -16.6393 -5.6833 12.8490 21.7756 2.4815
10.4906 -45.4653 -0.0776 -0.2511 17.3015 10.0650 0.0000 0.0000 0.0000 0.0000 0.0000 0.0000 7.6743 26.7582 1.8279 66.2149 1.1197 -1.7170 -143.3164 6.4638 2.1449 -5.6359 -1.6336 -32.3066 -67.1782 -1.0967 -1.6513 136.4159 -37.0848 15.2760 -24.5553 4.8824 22.1674 33.5950 0.0000 0.0000 -34.8459 -20.0835 6.3614 3.8325 41.3842 1.4480 -49.6721 0.0000 0.0000 49.1841 -10.9084 -5.0044 7.0913 23.0783 1.4496
11.2691 -42.4500 -0.0785 -0.0664 19.6831 8.0176 0.0000 0.0000 0.0000 0.0000 0.0000 0.0000 6.2834 22.8136 1.2690 65.3387 0.9043 -1.4102 -141.0493 15.4868 5.5060 -7.5520 -1.7351 -25.8448 -66.3614 -0.8862 -1.3552 136.3173 -35.5486 14.6433 -24.2292 5.8516 26.7864 33.3786 0.0000 0.0000 -35.8606 -20.8428 6.8115 3.2104 33.3676 0.9624 -49.8884 0.0000 0.0000 50.8051 -4.9755 -2.3640 2.1592 11.0658 0.2092
11.7434 -39.6222 -0.0752 -0.2562 20.4926 7.5993 0.0000 0.0000 0.0000 0.0000 0.0000 0.0000 5.4144 23.3839 1.1213 65.0328 1.0145 -1.5914 -140.7604 14.0400 5.0269 -8.6866 -2.0204 -26.1417 -66.2559 -0.9908 -1.5181 132.7789 -37.3710 16.8182 -24.6249 6.1804 27.7863 33.5196 0.0000 0.0000 -35.2903 -20.2139 6.4903 2.4800 31.6852 0.7039 -49.7475 0.0000 0.0000 52.1233 -2.3493 -1.1491 1.0950 11.9184 0.1143
11.8305 -38.3272 -0.0794 0.5071 18.0291 9.2599 0.0000 0.0000 0.0000 0.0000 0.0000 0.0000 6.5618 28.2027 1.6501 64.5566 0.1510 -0.2390 -134.8173 29.2637 12.3993 -14.6240 -3.2243 -24.7428 -66.0967 -0.1466 -0.2254 135.4436 -33.1992 13.9260 -23.2863 4.9772 23.8206 36.8098 0.0000 0.0000 -40.0624 -19.1399 7.0349 2.5908 34.9461 0.8157 -46.4573 0.0000 0.0000 48.7735 7.6162 3.4568 1.3657 10.3456 0.1236
11.3672 -31.8480 -0.0806 -0.0444 12.8051 10.6813 0.0000 0.0000 0.0000 0.0000 0.0000 0.0000 10.3719 34.8184 3.2602 63.5545 0.7212 -1.1642 -125.9354 36.1159 18.8900 -14.6402 -2.7174 -20.9217 -64.5026 -0.7101 -1.1253 130.9304 -34.2782 16.0253 -25.6298 4.4981 19.5918 38.0291 0.0000 0.0000 -39.7925 -15.9559 5.8074 4.1163 47.5887 1.8157 -45.2380 0.0000 0.0000 45.8061 4.8831 2.0640 4.8009 19.2218 0.8134
10.2058 -27.2772 -0.0954 1.8450 17.7633 5.4844 0.0000 0.0000 0.0000 0.0000 0.0000 0.0000 3.5696 34.7944 1.1188 65.4738 -2.4635 3.8310 -133.0114 23.8705 10.4996 -14.3298 -4.8851 -37.4876 -67.5003 2.3610 3.5328 142.6193 -10.2206 3.4657 -18.4950 4.4214 26.6769 43.5965 0.0000 0.0000 -47.7022 -20.9683 9.3545 -3.5245 45.4031 -1.4748 -39.6706 0.0000 0.0000 35.8440 -3.5483 -1.1479 5.2532 17.9604 0.8307
4.9202 -30.1280 -0.0717 0.6502 9.3215 11.6595 0.0000 0.0000 0.0000 0.0000 0.0000 0.0000 8.7307 13.9708 1.0718 70.7692 0.8684 -1.2227 -139.8923 21.7194 8.0116 5.9586 2.4389 -44.4888 -70.6902 -0.8706 -1.2275 143.0182 -3.4626 1.1583 -22.5198 2.9936 14.9543 34.3159 0.0000 0.0000 -31.5805 -3.6667 1.0372 6.9818 49.7894 3.2432 -48.9512 0.0000 0.0000 47.4351 4.8702 2.1407 7.4091 25.5585 1.6827
3.6317 -32.1905 -0.0653 0.4850 2.6526 9.8394 0.0000 0.0000 0.0000 0.0000 0.0000 0.0000 13.3761 42.1451 5.1741 68.7594 1.4179 -2.0722 -125.9779 41.8670 22.0688 -11.5853 -5.3572 -49.5155 -67.8535 -1.4504 -2.1561 140.3551 14.1736 -5.1319 -13.3018 3.7637 31.4734 32.4107 0.0000 0.0000 -31.3750 -3.9467 1.1088 11.8153 64.9600 7.5373 -50.8564 0.0000 0.0000 48.8703 3.2329 1.4692 9.0268 46.1634 3.8534
0.9931 -32.0853 -0.0525 2.8733 4.5322 14.1664 0.0000 0.0000 0.0000 0.0000 0.0000 0.0000 14.8004 48.3670 6.6761 66.9457 -0.1279 0.1935 -87.8988 52.2970 53.9784 -23.6526 -7.8356 -36.2230 -65.9151 0.1307 0.2016 137.6621 15.7326 -6.1252 -14.8448 4.5124 33.6535 42.0520 0.0000 0.0000 -44.3859 -7.4345 3.0365 25.2500 67.3550 16.9777 -41.2151 0.0000 0.0000 41.8822 2.0309 0.7773 12.0222 46.6574 5.2003
